<mxfile host="app.diagrams.net" agent="Mozilla/5.0 (Windows NT 10.0; Win64; x64) AppleWebKit/537.36 (KHTML, like Gecko) Chrome/128.0.0.0 Safari/537.36 OPR/114.0.0.0" version="24.7.16">
  <diagram name="Page-1" id="wMcJXPJrbRFAe2mAiJM7">
    <mxGraphModel dx="1633" dy="835" grid="1" gridSize="10" guides="1" tooltips="1" connect="1" arrows="1" fold="1" page="1" pageScale="1" pageWidth="850" pageHeight="1100" math="0" shadow="0">
      <root>
        <mxCell id="0" />
        <mxCell id="1" parent="0" />
        <mxCell id="vtOA3tPTH79tlYowmdQj-1" value="" style="whiteSpace=wrap;html=1;" vertex="1" parent="1">
          <mxGeometry x="42" y="120" width="768" height="780" as="geometry" />
        </mxCell>
        <mxCell id="vtOA3tPTH79tlYowmdQj-7" value="" style="rounded=1;whiteSpace=wrap;html=1;" vertex="1" parent="1">
          <mxGeometry x="70" y="170" width="188" height="60" as="geometry" />
        </mxCell>
        <mxCell id="vtOA3tPTH79tlYowmdQj-8" value="" style="rounded=1;whiteSpace=wrap;html=1;" vertex="1" parent="1">
          <mxGeometry x="592" y="170" width="188" height="60" as="geometry" />
        </mxCell>
        <mxCell id="vtOA3tPTH79tlYowmdQj-9" value="" style="rounded=1;whiteSpace=wrap;html=1;" vertex="1" parent="1">
          <mxGeometry x="331" y="170" width="188" height="60" as="geometry" />
        </mxCell>
        <mxCell id="vtOA3tPTH79tlYowmdQj-10" value="" style="rounded=1;whiteSpace=wrap;html=1;" vertex="1" parent="1">
          <mxGeometry x="40" y="40" width="770" height="60" as="geometry" />
        </mxCell>
        <mxCell id="vtOA3tPTH79tlYowmdQj-11" value="" style="rounded=1;whiteSpace=wrap;html=1;" vertex="1" parent="1">
          <mxGeometry x="488" y="290" width="290" height="310" as="geometry" />
        </mxCell>
        <mxCell id="vtOA3tPTH79tlYowmdQj-12" value="" style="rounded=1;whiteSpace=wrap;html=1;" vertex="1" parent="1">
          <mxGeometry x="70" y="290" width="400" height="310" as="geometry" />
        </mxCell>
        <mxCell id="vtOA3tPTH79tlYowmdQj-13" value="" style="rounded=1;whiteSpace=wrap;html=1;" vertex="1" parent="1">
          <mxGeometry x="70" y="640" width="710" height="220" as="geometry" />
        </mxCell>
        <mxCell id="vtOA3tPTH79tlYowmdQj-16" value="&lt;font style=&quot;font-size: 36px;&quot;&gt;Steve&#39;s Survival Guide: Loots, Mobs, &amp;amp; More!&lt;/font&gt;" style="text;html=1;align=center;verticalAlign=middle;whiteSpace=wrap;rounded=0;" vertex="1" parent="1">
          <mxGeometry x="40" y="40" width="770" height="60" as="geometry" />
        </mxCell>
        <mxCell id="vtOA3tPTH79tlYowmdQj-17" value="&lt;span style=&quot;font-size: 30px;&quot;&gt;World setting&lt;/span&gt;" style="text;html=1;align=center;verticalAlign=middle;whiteSpace=wrap;rounded=0;" vertex="1" parent="1">
          <mxGeometry x="74.5" y="172.5" width="179" height="55" as="geometry" />
        </mxCell>
        <mxCell id="vtOA3tPTH79tlYowmdQj-19" value="&lt;font style=&quot;font-size: 17px;&quot;&gt;Mob list &amp;amp; info (child of world setting as well)&lt;/font&gt;" style="text;html=1;align=center;verticalAlign=middle;whiteSpace=wrap;rounded=0;" vertex="1" parent="1">
          <mxGeometry x="335.5" y="172.5" width="179" height="55" as="geometry" />
        </mxCell>
        <mxCell id="vtOA3tPTH79tlYowmdQj-20" value="&lt;span style=&quot;font-size: 30px;&quot;&gt;Enchanting&lt;/span&gt;" style="text;html=1;align=center;verticalAlign=middle;whiteSpace=wrap;rounded=0;" vertex="1" parent="1">
          <mxGeometry x="599" y="172.5" width="179" height="55" as="geometry" />
        </mxCell>
        <mxCell id="vtOA3tPTH79tlYowmdQj-23" style="edgeStyle=orthogonalEdgeStyle;rounded=0;orthogonalLoop=1;jettySize=auto;html=1;entryX=0;entryY=0.5;entryDx=0;entryDy=0;" edge="1" parent="1" source="vtOA3tPTH79tlYowmdQj-21" target="vtOA3tPTH79tlYowmdQj-8">
          <mxGeometry relative="1" as="geometry">
            <Array as="points">
              <mxPoint x="570" y="200" />
            </Array>
          </mxGeometry>
        </mxCell>
        <mxCell id="vtOA3tPTH79tlYowmdQj-21" value="Enchanting is for MVP if I have enough time. I might change it for crafting recipes" style="text;html=1;align=center;verticalAlign=middle;whiteSpace=wrap;rounded=0;" vertex="1" parent="1">
          <mxGeometry x="570" y="130" width="240" height="30" as="geometry" />
        </mxCell>
        <mxCell id="vtOA3tPTH79tlYowmdQj-24" value="&lt;font style=&quot;font-size: 72px;&quot;&gt;Image&lt;/font&gt;" style="text;html=1;align=center;verticalAlign=middle;whiteSpace=wrap;rounded=0;" vertex="1" parent="1">
          <mxGeometry x="500" y="300" width="270" height="290" as="geometry" />
        </mxCell>
        <mxCell id="vtOA3tPTH79tlYowmdQj-25" value="&lt;font style=&quot;font-size: 48px;&quot;&gt;Info menu basically anything that is needed for the user to look into.&lt;/font&gt;" style="text;html=1;align=center;verticalAlign=middle;whiteSpace=wrap;rounded=0;" vertex="1" parent="1">
          <mxGeometry x="70" y="290" width="400" height="310" as="geometry" />
        </mxCell>
        <mxCell id="vtOA3tPTH79tlYowmdQj-26" value="&lt;span style=&quot;font-size: 48px;&quot;&gt;More depth of the item itself. Basically history of the item. Easter eggs or anything that is from the Minecraft wiki.&lt;/span&gt;" style="text;html=1;align=center;verticalAlign=middle;whiteSpace=wrap;rounded=0;" vertex="1" parent="1">
          <mxGeometry x="70" y="640" width="710" height="220" as="geometry" />
        </mxCell>
        <mxCell id="vtOA3tPTH79tlYowmdQj-27" value="This container of the content(main) will be a 0.2 opaque background&amp;nbsp;" style="text;html=1;align=center;verticalAlign=middle;whiteSpace=wrap;rounded=0;" vertex="1" parent="1">
          <mxGeometry x="80" y="1000" width="280" height="30" as="geometry" />
        </mxCell>
        <mxCell id="vtOA3tPTH79tlYowmdQj-29" style="edgeStyle=orthogonalEdgeStyle;rounded=0;orthogonalLoop=1;jettySize=auto;html=1;" edge="1" parent="1" source="vtOA3tPTH79tlYowmdQj-27">
          <mxGeometry relative="1" as="geometry">
            <mxPoint x="220" y="905" as="targetPoint" />
          </mxGeometry>
        </mxCell>
        <mxCell id="vtOA3tPTH79tlYowmdQj-30" value="The edged of the HTML document will probably be a grass texture from the game itself" style="text;html=1;align=center;verticalAlign=middle;whiteSpace=wrap;rounded=0;" vertex="1" parent="1">
          <mxGeometry x="480" y="10" width="330" height="30" as="geometry" />
        </mxCell>
        <mxCell id="vtOA3tPTH79tlYowmdQj-31" value="The background of the site will probably be by an artist&#39;s art and if possible POST MVP.&lt;div&gt;Try to cycle between other art pieces.&lt;/div&gt;" style="text;html=1;align=center;verticalAlign=middle;whiteSpace=wrap;rounded=0;" vertex="1" parent="1">
          <mxGeometry x="560" y="930" width="250" height="70" as="geometry" />
        </mxCell>
      </root>
    </mxGraphModel>
  </diagram>
</mxfile>
